<svg xmlns="http://www.w3.org/2000/svg" width="1200" height="680" viewBox="0 0 1200 680" role="img" aria-label="Google Docs collaboration diagram showing browsers plus WebSocket edge plus OT owner plus revision log plus presence lane">
  <defs>
    <filter id="grainG" x="0" y="0" width="100%" height="100%"><feTurbulence type="fractalNoise" baseFrequency="0.9" numOctaves="2" seed="61" result="n"/><feColorMatrix in="n" type="matrix" values="0 0 0 0 0 0 0 0 0 0 0 0 0 0 0 0 0 0 0.05 0"/></filter>
    <marker id="arrG" viewBox="0 0 10 10" refX="9" refY="5" markerWidth="8" markerHeight="8" orient="auto-start-reverse">
      <path d="M 0 1 L 9 5 L 0 9" fill="none" stroke="#b45309" stroke-width="1.8"/>
    </marker>
  </defs>
  <rect x="0" y="0" width="1200" height="680" fill="#f8fafc"/>
  <rect x="0" y="0" width="1200" height="680" fill="#f8fafc" filter="url(#grainG)"/>
  <rect x="0" y="0" width="1200" height="680" fill="none" stroke="#0f172a" stroke-width="6"/>
  <rect x="0" y="0" width="1200" height="64" fill="#0f172a"/>
  <text x="36" y="41" font-family="Sora, 'Segoe UI', Verdana, sans-serif" font-size="20" font-weight="bold" fill="#f8fafc">GOOGLE DOCS: TRANSFORM OR DIVERGE</text>
  <text x="948" y="41" font-family="Sora, 'Segoe UI', Verdana, sans-serif" font-size="24" font-weight="bold" fill="#f8fafc">Build<tspan dx="10" fill="#16a34a">opsy</tspan></text>
  <text x="60" y="122" font-family="'Segoe Script','Segoe Print','Comic Sans MS','Chalkboard SE',cursive" font-size="34" font-weight="bold" fill="#0f172a">One document. One order.</text>
  <text x="60" y="152" font-family="'Segoe Script','Segoe Print','Comic Sans MS','Chalkboard SE',cursive" font-size="21" font-style="italic" fill="#475569">every keystroke travels as an op. the server assigns the order. presence travels light.</text>
  <g font-family="Sora, 'Segoe UI', Verdana, sans-serif" text-anchor="middle">
    <rect x="60" y="185" width="250" height="150" rx="14" fill="#ffffff" stroke="#0f172a" stroke-width="3"/>
    <text x="185" y="232" font-size="22" font-weight="bold" fill="#0f172a">BROWSERS</text>
    <text x="185" y="264" font-size="18" fill="#475569">optimistic apply</text>
    <text x="185" y="292" font-size="18" fill="#475569">op buffers</text>
    <rect x="340" y="185" width="250" height="150" rx="14" fill="#ffffff" stroke="#0f172a" stroke-width="3"/>
    <text x="465" y="232" font-size="22" font-weight="bold" fill="#0f172a">EDGE</text>
    <text x="465" y="264" font-size="18" fill="#475569">pin doc to owner</text>
    <text x="465" y="292" font-size="18" fill="#475569">hold sockets</text>
    <rect x="620" y="185" width="250" height="150" rx="14" fill="#fffbeb" stroke="#b45309" stroke-width="4"/>
    <text x="745" y="232" font-size="22" font-weight="bold" fill="#0f172a">OT OWNER</text>
    <text x="745" y="264" font-size="18" fill="#475569">order plus transform</text>
    <text x="745" y="292" font-size="18" fill="#475569">assign revision</text>
    <rect x="900" y="185" width="240" height="150" rx="14" fill="#ffffff" stroke="#0369a1" stroke-width="3" stroke-dasharray="10 7"/>
    <text x="1020" y="232" font-size="22" font-weight="bold" fill="#0f172a">PRESENCE</text>
    <text x="1020" y="264" font-size="18" fill="#475569">cursors 10 Hz</text>
    <text x="1020" y="292" font-size="18" fill="#475569">drop is fine</text>
    <rect x="60" y="380" width="520" height="150" rx="14" fill="#ffffff" stroke="#0f172a" stroke-width="3"/>
    <text x="320" y="424" font-size="22" font-weight="bold" fill="#0f172a">REVISION LOG: APPEND ONLY</text>
    <text x="320" y="458" font-size="18" fill="#475569">every accepted op persists in order</text>
    <text x="320" y="486" font-size="18" fill="#475569">insert X at 5 becomes 6 after delete at 3</text>
    <rect x="620" y="380" width="520" height="150" rx="14" fill="#ffffff" stroke="#0f172a" stroke-width="3"/>
    <text x="880" y="424" font-size="22" font-weight="bold" fill="#0f172a">SNAPSHOT EVERY 30 OPS</text>
    <text x="880" y="458" font-size="18" fill="#475569">load snapshot plus replay tail</text>
    <text x="880" y="486" font-size="18" fill="#475569">history plus undo plus recovery</text>
    <rect x="60" y="560" width="1080" height="64" rx="12" fill="#0f172a"/>
    <text x="600" y="600" font-size="20" font-weight="bold" fill="#f8fafc">MUKUL LEDGER: the bill hides in the boundary between durable ops plus disposable presence.</text>
  </g>
  <g stroke="#b45309" stroke-width="3" fill="none" marker-end="url(#arrG)">
    <line x1="310" y1="260" x2="340" y2="260"/>
    <line x1="590" y1="260" x2="620" y2="260"/>
    <line x1="745" y1="335" x2="745" y2="380"/>
    <line x1="320" y1="530" x2="320" y2="560"/>
  </g>
</svg>
