<svg xmlns="http://www.w3.org/2000/svg" width="1200" height="680" viewBox="0 0 1200 680" role="img" aria-label="WhatsApp cost ledger showing gateway fleet plus inbox plus ordering plus presence plus media">
  <defs>
    <filter id="grainW2" x="0" y="0" width="100%" height="100%"><feTurbulence type="fractalNoise" baseFrequency="0.9" numOctaves="2" seed="72" result="n"/><feColorMatrix in="n" type="matrix" values="0 0 0 0 0 0 0 0 0 0 0 0 0 0 0 0 0 0 0.05 0"/></filter>
  </defs>
  <rect x="0" y="0" width="1200" height="680" fill="#f0fdf4"/>
  <rect x="0" y="0" width="1200" height="680" fill="#f0fdf4" filter="url(#grainW2)"/>
  <rect x="0" y="0" width="1200" height="680" fill="none" stroke="#0f172a" stroke-width="6"/>
  <rect x="0" y="0" width="1200" height="64" fill="#0f172a"/>
  <text x="36" y="41" font-family="Sora, 'Segoe UI', Verdana, sans-serif" font-size="20" font-weight="bold" fill="#f8fafc">WHATSAPP LEDGER: PRICE THE RELAY</text>
  <text x="948" y="41" font-family="Sora, 'Segoe UI', Verdana, sans-serif" font-size="24" font-weight="bold" fill="#f8fafc">Build<tspan dx="10" fill="#16a34a">opsy</tspan></text>
  <text x="60" y="122" font-family="'Segoe Script','Segoe Print','Comic Sans MS','Chalkboard SE',cursive" font-size="32" font-weight="bold" fill="#0f172a">Idle connections dominate. Messages are the minority.</text>
  <g font-family="Sora, 'Segoe UI', Verdana, sans-serif">
    <g>
      <text x="80" y="200" font-size="19" font-weight="bold" fill="#0f172a">GATEWAY FLEET</text>
      <rect x="80" y="215" width="380" height="42" rx="8" fill="#ffffff" stroke="#0f172a" stroke-width="3"/>
      <rect x="80" y="215" width="320" height="42" rx="8" fill="#047857"/>
      <text x="480" y="244" font-size="19" font-weight="bold" fill="#0f172a">$220k-380k</text>
      <text x="80" y="285" font-size="17" fill="#475569">500M sockets plus registry plus regional relays</text>
    </g>
    <g>
      <text x="80" y="325" font-size="19" font-weight="bold" fill="#0f172a">INBOX plus ORDERING</text>
      <rect x="80" y="340" width="380" height="42" rx="8" fill="#ffffff" stroke="#0f172a" stroke-width="3"/>
      <rect x="80" y="340" width="240" height="42" rx="8" fill="#b45309"/>
      <text x="480" y="369" font-size="19" font-weight="bold" fill="#0f172a">$150k-270k</text>
      <text x="80" y="410" font-size="17" fill="#475569">transient queues plus ack tracking plus group fan-out</text>
    </g>
    <g>
      <text x="680" y="200" font-size="19" font-weight="bold" fill="#0f172a">PRESENCE plus PUSH</text>
      <rect x="680" y="215" width="380" height="42" rx="8" fill="#ffffff" stroke="#0f172a" stroke-width="3"/>
      <rect x="680" y="215" width="150" height="42" rx="8" fill="#0369a1"/>
      <text x="1080" y="244" font-size="19" font-weight="bold" fill="#0f172a">$60k-120k</text>
      <text x="680" y="285" font-size="17" fill="#475569">heartbeats plus typing plus wake-up notifications</text>
    </g>
    <g>
      <text x="680" y="325" font-size="19" font-weight="bold" fill="#0f172a">MEDIA plus KEYS</text>
      <rect x="680" y="340" width="380" height="42" rx="8" fill="#ffffff" stroke="#0f172a" stroke-width="3"/>
      <rect x="680" y="340" width="200" height="42" rx="8" fill="#64748b"/>
      <text x="1080" y="369" font-size="19" font-weight="bold" fill="#0f172a">$110k-210k</text>
      <text x="680" y="410" font-size="17" fill="#475569">blob store plus CDN plus prekey directory</text>
    </g>
    <rect x="60" y="450" width="1080" height="90" rx="12" fill="#fffbeb" stroke="#047857" stroke-width="3"/>
    <text x="600" y="486" font-size="20" font-weight="bold" fill="#0f172a" text-anchor="middle">SCENARIO ENVELOPE: $540k-980k PER MONTH</text>
    <text x="600" y="516" font-size="17" fill="#475569" text-anchor="middle">modeled from public architecture plus labeled assumptions. not a vendor invoice.</text>
    <rect x="60" y="560" width="1080" height="64" rx="12" fill="#0f172a"/>
    <text x="600" y="600" font-size="20" font-weight="bold" fill="#f8fafc" text-anchor="middle">MUKUL LEDGER: delete after delivery. archive nothing. the relay stays small because it forgets.</text>
  </g>
</svg>
